<?xml version="1.0" encoding="utf-8"?>
<!-- Generator: Adobe Illustrator 26.0.0, SVG Export Plug-In . SVG Version: 6.00 Build 0)  -->
<svg version="1.1" id="Layer_1" xmlns="http://www.w3.org/2000/svg" xmlns:xlink="http://www.w3.org/1999/xlink" x="0px" y="0px"
	 viewBox="0 0 568.2 216.4" style="enable-background:new 0 0 568.2 216.4;" xml:space="preserve">
<style type="text/css">
	.st0{fill:#031E1B;}
	.st1{fill:url(#SVGID_1_);}
	.st2{fill:url(#SVGID_00000096769953920656131500000000011707679105183421_);}
	.st3{fill:url(#SVGID_00000065044396922193192080000015855982240097245065_);}
</style>
<path class="st0" d="M163.1,109c0-14.3,10.8-25.9,26.2-25.9c14.6,0,25.3,10.8,25.3,27.6v3.6h-35.2c1.1,4.4,5.2,8.1,12.4,8.1
	c3.5,0,9.2-1.5,12.1-4.2l6.9,10.3c-4.9,4.4-13.1,6.5-20.7,6.5C174.8,135,163.1,125.1,163.1,109z M189.3,95.8
	c-6.9,0-9.5,4.1-10.1,7.7h20.4C199.1,100,196.6,95.8,189.3,95.8L189.3,95.8z"/>
<path class="st0" d="M251.3,133.8v-5.9c-3.1,3.5-8.7,7.2-17.1,7.2c-11.2,0-16.3-6.5-16.3-15.5V84.3h15.8V113c0,6,3.1,8.1,8.2,8.1
	c3.7,0,7.2-1.8,9.4-4.8v-32H267v49.5L251.3,133.8z"/>
<path class="st0" d="M287,127.9v24.7h-15.8V84.3H287V90c3.5-4.5,8.9-7.1,14.6-7c12.4,0,21.7,9.2,21.7,25.9s-9.3,26-21.7,26
	C295.9,135,290.5,132.4,287,127.9z M307.3,108.9c0-7.4-4.7-12-10.9-12c-3.6,0.1-7.1,1.7-9.4,4.5v15.1c2.4,2.8,5.8,4.4,9.4,4.5
	C302.5,121.1,307.2,116.5,307.3,108.9L307.3,108.9z"/>
<path class="st0" d="M358.7,133.8v-4.9c-3.1,3.7-9,6.1-15.4,6.1c-7.6,0-17-5.2-17-16.3c0-12,9.4-16,17-16c6.5,0,12.4,2.2,15.4,5.8
	v-4.9c0-4.3-3.7-7.3-10-7.3c-5.1,0.1-10,2-13.8,5.3l-5.8-11c6.4-5.4,14.9-7.7,22.4-7.7c11.9,0,23,4.4,23,19.8v30.9L358.7,133.8z
	 M358.7,121.1v-4.4c-1.6-2.3-5.3-3.5-8.8-3.5c-4.1,0-7.9,1.8-7.9,5.7s3.8,5.7,7.9,5.7C353.4,124.7,357,123.4,358.7,121.1z"/>
<path class="st0" d="M380,146.5l6.9-11.1c3.9,4.1,9.3,5.7,15.1,5.7c5.2,0,12.6-2.2,12.6-11.7v-3.8c-4.1,4.9-9,7.3-14.6,7.3
	c-12.1,0-21.7-8.3-21.7-25c0-16.3,9.3-24.9,21.7-24.9c5.7-0.1,11.1,2.5,14.6,7.1v-5.8h15.8v45.2c0,20.1-16.1,24.4-28.4,24.4
	C393.4,153.9,386.3,151.7,380,146.5z M414.5,114.6v-13.2c-2-2.7-6.1-4.4-9.4-4.4c-6.2,0-10.9,3.8-10.9,11s4.6,11,10.8,11
	C408.3,119,412.5,117.3,414.5,114.6L414.5,114.6z"/>
<path class="st0" d="M433.9,109c0-13.9,10-25.9,26.8-25.9c17,0,27,12,27,25.9s-10,26-27,26C443.9,135,433.9,122.9,433.9,109z
	 M471.6,109c0-6.6-3.9-12-10.9-12c-6.8,0-10.6,5.4-10.6,12s3.9,12.1,10.6,12.1C467.7,121.1,471.6,115.7,471.6,109L471.6,109z"/>
<radialGradient id="SVGID_1_" cx="63.1775" cy="104.6042" r="93.16" gradientTransform="matrix(0.99 0 0 -0.99 29.97 255.32)" gradientUnits="userSpaceOnUse">
	<stop  offset="0" style="stop-color:#3B90FF"/>
	<stop  offset="0.62" style="stop-color:#08DFB0"/>
</radialGradient>
<path class="st1" d="M90.4,110L90.4,110l15.3-15.3l0,0c2.8-2.8,2.8-7.4,0-10.2c0,0,0,0,0,0l-2.6-2.6c-1.4-1.4-3.7-1.4-5.1,0
	l-2.5,2.5l0,0L80.2,99.8l0,0c-2.8,2.8-2.8,7.4,0,10.2C83,112.8,87.6,112.8,90.4,110L90.4,110z"/>
<radialGradient id="SVGID_00000134966557921411352300000009845626383560707002_" cx="63.1775" cy="104.6042" r="93.16" gradientTransform="matrix(0.99 0 0 -0.99 29.97 255.32)" gradientUnits="userSpaceOnUse">
	<stop  offset="0" style="stop-color:#3B90FF"/>
	<stop  offset="0.62" style="stop-color:#08DFB0"/>
</radialGradient>
<path style="fill:url(#SVGID_00000134966557921411352300000009845626383560707002_);" d="M126.1,115.1L126.1,115.1l-15.3,15.3l0,0
	c-2.8,2.8-2.8,7.4,0,10.2c2.8,2.8,7.4,2.8,10.2,0l0,0l15.3-15.3l0,0l2.6-2.6c1.4-1.4,1.4-3.7,0-5.1l-2.6-2.6
	C133.5,112.2,128.9,112.2,126.1,115.1C126.1,115,126.1,115,126.1,115.1z"/>
<radialGradient id="SVGID_00000125589772084682386870000017843183403573544843_" cx="63.1775" cy="104.6042" r="93.16" gradientTransform="matrix(0.99 0 0 -0.99 29.97 255.32)" gradientUnits="userSpaceOnUse">
	<stop  offset="0" style="stop-color:#3B90FF"/>
	<stop  offset="0.62" style="stop-color:#08DFB0"/>
</radialGradient>
<path style="fill:url(#SVGID_00000125589772084682386870000017843183403573544843_);" d="M118.4,66.6c-1.4-1.4-3.7-1.4-5.1,0
	l-2.5,2.6c-1,0.9-1.6,2.1-1.9,3.5c-0.1,0.3-0.1,0.6-0.2,0.8c0,0,0,0.1,0,0.1c-0.1,0.6,0,1.3,0.1,1.9l0.1,0.3c0,0.1,0,0.1,0.1,0.2
	c0.3,1.3,1,2.4,1.9,3.3l0,0c5.6,5.6,5.6,14.8,0,20.4l-23,22.9l0,0c-2.8,2.8-2.8,7.4,0,10.2s7.4,2.8,10.2,0l0,0l0,0l23-22.9l0,0
	c11.2-11.3,11.2-29.5,0-40.8l0,0L118.4,66.6z"/>
</svg>
